<svg id="Layer_1" data-name="Layer 1" xmlns="http://www.w3.org/2000/svg" viewBox="0 0 610 410.01"><defs><style>.cls-1{fill:#3476b9;}.cls-2{fill:#fff;}</style></defs><title>hat_svg</title><path class="cls-1" d="M70.83,427.51a10.83,10.83,0,0,1-8.14-3.73,11.1,11.1,0,0,1-2.68-8.4L74.92,304.06A35.7,35.7,0,0,1,77,244.62c1.87-32.72,10.54-62.69,24-83.09L17.48,135.46a11.05,11.05,0,0,1-.08-20.89L309.27,22.83l.13,0a15.62,15.62,0,0,1,6.2,0l.13,0,291.8,91.71a11.05,11.05,0,0,1,.08,20.89l-291.9,91.78-.13,0a15.62,15.62,0,0,1-6.2,0l-.13,0-168.6-53.32c-13.56,11.62-23.16,38.68-25.3,71.36A35.06,35.06,0,0,1,131.67,275a35.52,35.52,0,0,1-14.92,29.05l14.9,111.23a11.15,11.15,0,0,1-2.68,8.49,10.82,10.82,0,0,1-8.12,3.72ZM312.5,360.83c-70,0-133.66-17.54-158.33-43.65-7.69-8.14-11.34-16.77-10.83-25.66L148.2,206l152.55,48.1a41.28,41.28,0,0,0,23.54,0L476.8,206l4.87,85.5c.5,8.9-3.14,17.54-10.84,25.68C446.17,343.3,382.54,360.83,312.5,360.83Z" transform="translate(-7.5 -20)"/><path class="cls-2" d="M312.5,25a13.12,13.12,0,0,1,2.61.26l291.67,91.67a8.56,8.56,0,0,1,0,16.15L315.09,224.79a13.12,13.12,0,0,1-5.21,0L140.11,171.09c-14.84,11.72-25.3,40.37-27.34,75.52A32.51,32.51,0,0,1,129.17,275a33.17,33.17,0,0,1-15.11,27.87l15.11,112.76a8.57,8.57,0,0,1-2.08,6.51,8.32,8.32,0,0,1-6.25,2.87h-50a8.32,8.32,0,0,1-6.25-2.87,8.57,8.57,0,0,1-2.08-6.51L77.6,302.87a33.2,33.2,0,0,1,1.83-56.77c1.56-30.47,9.37-63.28,25.52-85.94L18.23,133.08a8.56,8.56,0,0,1,0-16.15L309.9,25.26A13.12,13.12,0,0,1,312.5,25m162,184.38,4.69,82.29c2.08,36.72-74.74,66.66-166.67,66.66s-168.75-30-166.67-66.66l4.69-82.29L300,256.51a43.77,43.77,0,0,0,25,0l149.48-47.14M312.5,20a18.16,18.16,0,0,0-3.6.36l-.26.05-.25.08L16.73,112.16l-.08,0-.08,0a13.56,13.56,0,0,0,0,25.58l.08,0,.08,0,80.37,25.1a140.91,140.91,0,0,0-15.2,35.9,217,217,0,0,0-7.32,44.36,38.2,38.2,0,0,0-2.34,62L57.54,415v.16a13.62,13.62,0,0,0,3.29,10.31,13.31,13.31,0,0,0,10,4.57h50a13.33,13.33,0,0,0,10-4.59,13.61,13.61,0,0,0,3.28-10.29V415L119.42,305.19A38,38,0,0,0,134.17,275a37.56,37.56,0,0,0-16.23-31c2.21-30.56,11-55.79,23.3-67.27l167.12,52.86.25.08.26.05a18.12,18.12,0,0,0,7.2,0l.26-.05.25-.08,291.69-91.71.08,0,.08,0a13.56,13.56,0,0,0,0-25.58l-.08,0-.08,0L316.6,20.49l-.25-.08-.26-.05a18.16,18.16,0,0,0-3.6-.36ZM479.11,202.67,473,204.61,323.54,251.73a38.77,38.77,0,0,1-22.08,0L152,204.61l-6.13-1.93-.37,6.42-4.69,82.29c-.54,9.6,3.33,18.86,11.51,27.52,12.35,13.07,34.07,24.21,62.81,32.19s62.46,12.24,97.34,12.24,68.54-4.23,97.33-12.22,50.46-19.11,62.81-32.18c8.19-8.67,12.06-17.93,11.52-27.54l-4.69-82.3-.37-6.42Z" transform="translate(-7.5 -20)"/></svg>