<svg id="Layer_1" data-name="Layer 1" xmlns="http://www.w3.org/2000/svg" viewBox="0 0 476.02 410"><defs><style>.cls-1{fill:#3476b9;}.cls-2{fill:#fff;}</style></defs><title>heart_svg</title><path class="cls-1" d="M250,415a18.71,18.71,0,0,1-13.2-5.41L74.58,252.88c-2.32-2.07-60.09-54.7-60.09-118.5,0-38.11,11.67-69.7,33.74-91.33s54.23-33,93.06-33C186,10,227.94,43.81,250,65.23,272.08,43.81,314,10,358.71,10c38.83,0,71,11.42,93.06,33s33.75,53.22,33.75,91.34c0,56.75-45.78,105.05-59.81,118.5L263.17,409.61A18.69,18.69,0,0,1,250,415Z" transform="translate(-12 -7.5)"/><path class="cls-2" d="M358.71,12.5C436.46,12.5,483,58.07,483,134.37c0,62.5-57.21,114.84-59.55,117.19l-162,156.25a16.31,16.31,0,0,1-22.89,0h0L76.28,251C74.17,249.22,17,196.87,17,134.37,17,58.08,63.54,12.5,141.3,12.5c45.51,0,88.16,35.94,108.71,56.22C270.59,48.41,313.2,12.5,358.71,12.5m0-5C314.3,7.5,272.78,40,250,61.76,227.24,40,185.73,7.5,141.3,7.5,101.8,7.5,69,19.17,46.49,41.26S12,95.57,12,134.37C12,198.7,69.56,251.72,72.87,254.7L235.08,411.41a21.31,21.31,0,0,0,29.85,0l162-156.24,0,0,0,0,.43-.41C441.64,241.06,488,192.12,488,134.37c0-38.8-11.93-71-34.5-93.12S398.2,7.5,358.71,7.5Z" transform="translate(-12 -7.5)"/></svg>