<svg id="Layer_1" data-name="Layer 1" xmlns="http://www.w3.org/2000/svg" viewBox="0 0 271.67 405"><defs><style>.cls-1{fill:#3476b9;stroke:#fff;stroke-miterlimit:10;stroke-width:5px;}</style></defs><title>innovation_svg</title><path class="cls-1" d="M319,198.95c-18,19.79-41.67,47.66-43.75,75.52a25,25,0,0,1,12.24,21.35A24.34,24.34,0,0,1,281,312.49a24.34,24.34,0,0,1,6.51,16.67,25,25,0,0,1-11.72,21.09,25.43,25.43,0,0,1,3.39,12.24c0,16.93-13.29,25-28.39,25a41.82,41.82,0,0,1-76.57,0c-15.11,0-28.39-8.07-28.39-25a25.45,25.45,0,0,1,3.39-12.24,25,25,0,0,1-11.72-21.09A24.33,24.33,0,0,1,144,312.48a24.33,24.33,0,0,1-6.51-16.67,25,25,0,0,1,12.24-21.35c-2.08-27.86-25.78-55.73-43.75-75.52s-26.82-43-26.82-69.79c0-70.84,67.45-116.67,133.33-116.67S345.82,58.32,345.82,129.15C345.82,156,337,179.15,319,198.95ZM212.49,45.82c-47.14,0-100,31.25-100,83.34,0,16.67,6.77,34.12,17.71,46.88,4.95,5.73,10.68,11.2,15.9,17.19,18.47,22.14,34.11,48.18,36.71,77.61h59.38c2.61-29.42,18.23-55.47,36.72-77.61,5.22-6,10.94-11.46,15.9-17.19,10.93-12.76,17.7-30.21,17.7-46.88C312.49,77.07,259.63,45.82,212.49,45.82Zm50,91.67a8.57,8.57,0,0,1-8.33-8.33c0-18-27.86-25-41.67-25a8.33,8.33,0,0,1,0-16.67c24.22,0,58.33,12.76,58.33,41.67A8.56,8.56,0,0,1,262.49,137.49Z" transform="translate(-76.66 -9.98)"/></svg>