<svg version="1.2" xmlns="http://www.w3.org/2000/svg" viewBox="0 0 164 82" width="164" height="82">
	<title>Logo-ai</title>
	<style>
		.s0 { fill: #1b408d } 
		.s1 { fill: #8c7d44 } 
	</style>
	<g id="Слой 1">
		<g id="&lt;Group&gt;">
			<path id="&lt;Compound Path&gt;" fill-rule="evenodd" class="s0" d="m35.7 66.4c-0.3 0.2-0.8 0.3-1.5 0.3-1.4 0-2.3-1-2.3-2.5 0-1.1 0.5-2.2 1.2-2.9q0.9-0.8 2.2-0.8c0.6 0 1.1 0.2 1.2 0.3l-0.2 0.6c-0.2-0.1-0.6-0.2-1.1-0.2-0.6 0-1.2 0.2-1.7 0.6-0.5 0.5-0.8 1.4-0.8 2.3 0 1.1 0.4 2 1.7 2 0.4 0 0.9-0.1 1.2-0.3zm2.8-5.2h-1.7l0.1-0.6h4.1l-0.2 0.6h-1.6l-1 5.4h-0.7zm4.4 5.5c-1.5 0-2.2-1.2-2.2-2.5 0-1 0.4-2.1 1-2.9 0.5-0.5 1.2-0.8 2-0.8 1.5 0 2.2 1.1 2.2 2.4 0 1-0.4 2.1-1 2.9-0.5 0.5-1.2 0.9-2 0.9zm0.1-0.7c1.2 0 2.1-1.6 2.1-3 0-0.9-0.2-1.9-1.5-1.9-1.3 0-2.2 1.7-2.2 3.1 0 0.9 0.4 1.8 1.6 1.8zm8 0.6l0.4-3.3c0.1-0.6 0.2-1.4 0.3-2-0.3 0.6-0.6 1.3-0.9 1.9l-1.7 3.3h-0.5l-0.5-3.2c0-0.7-0.1-1.4-0.1-2h-0.1c-0.1 0.5-0.3 1.4-0.4 2l-0.8 3.3h-0.6l1.4-6h0.9l0.5 3.4c0.1 0.5 0.1 1.1 0.1 1.5h0.1c0.1-0.4 0.4-1 0.6-1.5l1.8-3.4h0.9l-0.7 6zm4.9-1.9h-1.9l-0.9 1.9h-0.8l3-6h0.8l0.8 6h-0.7zm-1.7-0.6h1.6l-0.2-1.8c0-0.3-0.1-0.7-0.1-1.1q-0.2 0.6-0.5 1.1zm5.4-2.9h-1.7l0.1-0.6h4.1l-0.1 0.6h-1.7l-1 5.4h-0.7zm4.4 5.5c-1.5 0-2.2-1.2-2.2-2.5 0-1 0.4-2.1 1.1-2.9 0.5-0.5 1.2-0.8 1.9-0.8 1.6 0 2.2 1.1 2.2 2.4 0 1-0.4 2.2-1 2.9-0.5 0.5-1.2 0.9-2 0.9zm0.1-0.7c1.2 0 2.2-1.6 2.2-3 0-0.9-0.3-1.9-1.6-1.9-1.2 0-2.1 1.7-2.1 3.1 0 0.9 0.4 1.8 1.5 1.8zm8.1-5.4l-1.1 6h-0.7l0.9-5.4h-1.8l-0.3 1.8c-0.3 1.7-0.7 2.6-1.3 3.2-0.2 0.2-0.6 0.4-1.1 0.5v-0.7c0.2 0 0.5-0.2 0.7-0.4q0.6-0.6 1-2.5l0.4-2.5zm0.4 3.6c0-1 0.3-2.1 1-2.9 0.5-0.5 1.2-0.8 2-0.8 1.5 0 2.1 1.1 2.1 2.4 0 1-0.3 2.2-1 2.9-0.5 0.5-1.2 0.9-2 0.9-1.4 0-2.1-1.2-2.1-2.5zm4.4-1.2c0-0.9-0.3-1.9-1.5-1.9-1.3 0-2.2 1.7-2.2 3.1 0 0.9 0.4 1.8 1.5 1.8 1.3 0 2.2-1.6 2.2-3zm4.9-2.4l-0.2 0.6h-1.9l-1 5.4h-0.7l1.1-6zm0.6 0h0.7l-1.1 6h-0.7zm2.5 0l-0.3 1.7c0 0.2-0.1 0.5-0.1 0.7 0 0.6 0.4 0.8 1 0.8 0.5 0 0.9-0.2 1.1-0.3l0.5-2.9h0.7l-1.1 6h-0.7l0.5-2.5c-0.3 0.2-0.8 0.4-1.3 0.4-0.9 0-1.4-0.5-1.4-1.4q0-0.4 0.1-0.8l0.3-1.7zm4.9 0l-0.4 2.5h2.6l0.5-2.5h0.7l-1.1 6h-0.7l0.5-2.9h-2.7l-0.5 2.9h-0.7l1.1-6zm5.3 0l-0.5 2.7c-0.1 0.8-0.3 1.6-0.5 2.3h0.1c0.3-0.6 0.8-1.2 1.3-1.9l2.3-3.1h0.7l-1.1 6h-0.7l0.5-2.8c0.2-0.8 0.3-1.5 0.5-2.2-0.4 0.7-0.9 1.3-1.4 2l-2.2 3h-0.7l1-6zm5.4 0l-0.5 2.7c-0.2 0.8-0.3 1.6-0.5 2.3 0.4-0.6 0.8-1.2 1.3-1.9l2.3-3.1h0.8l-1.1 6h-0.7l0.5-2.8c0.2-0.8 0.3-1.5 0.5-2.2h-0.1c-0.4 0.7-0.8 1.3-1.3 2l-2.2 3h-0.8l1.1-6zm1-1.4c0 0.3 0.1 0.5 0.5 0.5 0.3 0 0.5-0.2 0.6-0.5h0.6c-0.1 0.5-0.6 0.9-1.2 0.9-0.7 0-1-0.4-1-0.9zm17.8 1.4h0.7l-0.9 5.3h2.4l1-5.3h0.7l-1 5.4h0.5l-0.4 2h-0.6l0.2-1.4h-3.7zm7.5 3.1h-2.1l-0.4 2.2h2.4l-0.1 0.7h-3.1l1.1-6h2.9l-0.1 0.6h-2.2l-0.4 1.9h2.1zm1.8-3.2h0.7l-0.4 2.6h2.6l0.4-2.6h0.7l-1 6h-0.7l0.5-2.8h-2.7l-0.5 2.8h-0.7zm6.2 0.7h-1.7l0.2-0.7h4l-0.1 0.7h-1.7l-0.9 5.3h-0.8zm2.1 5.4l1.1-5.9c0.3-0.1 0.8-0.1 1.2-0.1 0.6 0 1.1 0.1 1.4 0.4q0.4 0.4 0.4 1.1c0 0.7-0.3 1.2-0.6 1.6-0.5 0.4-1.1 0.5-1.8 0.5q-0.3 0-0.6 0l-0.4 2.4zm1.7-5.4l-0.5 2.4q0.3 0 0.6 0c1 0 1.6-0.6 1.6-1.4 0-0.8-0.5-1-1.1-1q-0.4 0-0.6 0z"/>
			<path id="&lt;Compound Path&gt;" fill-rule="evenodd" class="s1" d="m107.8 73.4c0 0 3.5-3.9 4.4-10.6 0.8-6.7 1.9-14 3.8-17.6 1.9-3.6 4.5-8.8 4.4-14.6-0.1-5.7-1.9-11.5-6.9-10.9-4.9 0.6-6.6 3.7-8.9 3.6-2.3-0.1-4.8-4.7-8.5-4.5-3.7 0.1-6.7 5.3-8.3 3.6-1.5-1.7 4.3-7.4 8.7-7.8h0.9c4.4 0.5 6.1 4.5 7.2 4.4 1-0.1 4.8-4.1 9.6-4.4h1.1c5.2 0.4 10.6 8.4 10.1 13.4-0.4 5.1-0.7 12.2-5.2 18.4-4.6 6.3-3.1 16-6.2 23.4-3.1 7.4-6 9.5-7.9 9-1.9-0.4-2.5-6-1.4-13.3 1-7.3-1-8.4-4.8-8.4h-65.1v-3.3h64.8c0.4 0 8.5 0 8.6 4.5 0.1 4.6-0.4 15.1-0.4 15.1zm43.2-19.6v3.3h-31.8v-3.3z"/>
			<path id="&lt;Compound Path&gt;" fill-rule="evenodd" class="s0" d="m33.4 27.4l-5 27.5 2.5 0.1-2.6 11.4h-4l1.2-7.4h-16.5l-1.8 7.4h-3.9l1.8-11.4 2.3-0.1c1.8-2.6 3.3-5.3 4.6-8.3 1.3-3.3 2.3-6.7 3.1-10.8l1.5-8.4zm-14.2 9.9c-0.7 3.9-1.7 7.4-2.9 10.4-1.2 2.8-2.4 5.2-3.8 7.1h11.3l4.2-23.2h-7.7zm34.1-3.5c0 5.3-4.5 7.9-13.8 7.9q-0.2 0-0.5 0c0 1 0.1 2.7 0.5 3.6 0.7 1.8 2.2 2.8 4.3 2.8 1.9 0 3.7-0.5 5.5-1.5l0.6-0.4 0.7 4-0.3 0.2c-2 1.1-4.7 1.8-7.3 1.8-5.3 0-8.6-3.7-8.6-9.7 0-7.1 5-15.1 12.1-15.1 4 0 6.8 2.5 6.8 6.4zm-4.6 0c0-1.5-1-2.4-2.7-2.4-3.1 0-5.4 3.2-6.4 6.3 3.1 0 5.2-0.3 6.8-0.9 1.6-0.6 2.3-1.6 2.3-3zm22.8-5.9h4.7l-4.2 23.8h-4.6l1.8-10.5h-8.6l-1.9 10.5h-4.6l4.2-23.8h4.6l-1.6 9.2h8.6zm38.9 6c0 1.1-0.1 2.7-0.3 4l-2.5 13.8h-4.6l2.4-13.7c0.2-0.9 0.3-2 0.3-2.9 0-2.4-0.8-3.4-2.7-3.4-2.3 0-5.3 3-6.2 7.9l-2.1 12.1h-4.5l2.5-13.9c0.1-1.1 0.2-1.9 0.2-2.7 0-2.4-0.8-3.4-2.6-3.4-2.4 0-5.6 3.5-6.4 8.2l-2 11.8h-4.6l3-16.7q0.5-3.4 0.9-6.6l0.1-0.5h4.2l-0.4 3.1c1.9-2.3 4.3-3.6 6.9-3.6 2.7 0 4.6 1.6 5.2 4.2 2-2.7 4.5-4.1 7.5-4.2 2.9 0 5.7 2 5.7 6.5zm25.1-12.4c-0.1 1.9-1.4 3.3-3.2 3.3-1.5 0-2.6-1.3-2.6-3.1 0-1.8 1.4-3.2 3-3.2 1.6 0 2.8 1.2 2.8 3zm-6.4 6.4h4.7l-4.2 23.8h-4.7zm28.1 0l-4.3 23.9h-4.6l1.9-10.5h-8.7l-1.8 10.5h-4.7l4.2-23.9h4.7l-1.6 9.3h8.6l1.6-9.3z"/>
		</g>
	</g>
</svg>