<svg id="Layer_1" data-name="Layer 1" xmlns="http://www.w3.org/2000/svg" viewBox="0 0 353.25 410"><defs><style>.cls-1{fill:#3476b9;}.cls-2{fill:#fff;}</style></defs><title>reliable_svg</title><path class="cls-1" d="M210.66,414.81l-2.3-.92c-1.79-.71-3.65-1.45-5.46-2.28a285,285,0,0,1-50.08-29.39,256.86,256.86,0,0,1-60.25-62.47A296.32,296.32,0,0,1,59,253.42a323.52,323.52,0,0,1-13.52-49.65c-1.31-6.92-2.37-13.82-3.56-22.07-.66-4.56-1.09-9-1.53-14-.35-4-.65-8-.93-11.85q-.17-2.34-.35-4.68c-.88-11.68-.72-23.28-.56-34.5.07-5.17.49-10.38.9-15.42l.1-1.25c.38-4.79.91-9.47,1.47-14.25.54-4.56,3.49-7.37,8.29-7.91,5.83-.66,11.74-1.41,17.55-2.25a226.85,226.85,0,0,0,25.66-5.39A299.83,299.83,0,0,0,135.75,55,298.75,298.75,0,0,0,184,28.69c5.12-3.46,10.19-7.23,15.1-10.88,2.33-1.73,4.67-3.47,7-5.18l.34-.25A9.6,9.6,0,0,1,212.17,10h0a8.25,8.25,0,0,1,5.08,1.78c1.55,1.15,3.08,2.32,4.62,3.49s2.84,2.17,4.28,3.24a312.92,312.92,0,0,0,81.79,44.15,292.92,292.92,0,0,0,44.28,12c3.39.64,6.92,1.09,10.33,1.54,1.53.2,3.06.4,4.58.61l3,.4c2,.26,4.09.53,6.15.85,4.45.7,6.79,3.27,7.17,7.86q.33,4,.69,8c.25,2.85.5,5.71.73,8.56.14,1.73.25,3.46.36,5.18.1,1.49.19,3,.31,4.48s.24,3,.38,4.48c.23,2.62.46,5.33.61,8,.17,3.29.13,6.65.07,9.54-.07,3.4-.18,7.9-.46,12.48-.37,6-.71,11.48-1.28,16.91-.76,7.27-1.66,14.63-2.67,21.86a344.41,344.41,0,0,1-13.43,58.35,305.92,305.92,0,0,1-25.12,57.25,263.91,263.91,0,0,1-37.92,51.12,260.09,260.09,0,0,1-64.55,49.39c-5.67,3.09-11.56,5.94-17.25,8.71-2.45,1.19-4.9,2.38-7.34,3.59a15.23,15.23,0,0,1-1.84.73l-.59.21-.41.15h-2.62ZM55.45,135.92c.18,5,.37,10.2.6,15.29.2,4.23.44,8.76.87,13.16.57,5.81,1.15,11.5,2,17.2,1.21,7.76,2.64,16.77,4.44,25.49a314.17,314.17,0,0,0,13.75,47.15,268.72,268.72,0,0,0,25.29,50.63,237.37,237.37,0,0,0,49.36,55.44,266.94,266.94,0,0,0,58.77,36.21,4.33,4.33,0,0,0,1.79.43,3.75,3.75,0,0,0,1.69-.42c1.88-.94,3.79-1.84,5.69-2.75,2.29-1.09,4.66-2.22,6.95-3.38a252.29,252.29,0,0,0,42.86-27.48,240.44,240.44,0,0,0,41-41.68,260,260,0,0,0,38-70.07,331.87,331.87,0,0,0,16.78-67.76c1-6.87,1.77-13.85,2.44-20.75.52-5.3.81-10.75,1-15.45.21-4.24.34-8.84.41-14.49,0-2.81,0-5.69-.13-8.47L369,120c-.14-5-.29-10.18-.55-15.26-.09-1.86-.28-3.78-.46-5.64-.16-1.62-.32-3.3-.43-5l-4.15-.61c-4.36-.64-8.88-1.3-13.31-2.06a284.3,284.3,0,0,1-40.29-10.15A321.93,321.93,0,0,1,242.1,49.84c-10-6.09-20-12.94-29.85-20.37-9.54,7.23-19.54,14.06-29.75,20.3a326.73,326.73,0,0,1-48.72,24.57,295.33,295.33,0,0,1-49.87,15.2c-5.25,1.09-10.6,2-15.78,2.89l-3.74.64c-2.3.4-4.63.7-6.89,1l-.52.07,0,.25c-.12.8-.23,1.55-.28,2.28-.14,2-.24,4-.34,6l-.1,2q-.12,2.2-.24,4.41c-.2,3.48-.4,7.09-.53,10.62-.07,2.18-.05,4.42,0,6.58,0,1.08,0,2.16,0,3.24V132h-.14Q55.38,133.94,55.45,135.92Z" transform="translate(-35.93 -7.5)"/><path class="cls-2" d="M212.25,12.5a5.79,5.79,0,0,1,3.51,1.28c3,2.22,5.91,4.51,8.9,6.74A313.9,313.9,0,0,0,307.09,65a294.51,294.51,0,0,0,44.66,12.14c5,.93,10,1.46,15,2.16,3.05.42,6.12.78,9.16,1.25,3.34.52,4.79,2.2,5.06,5.59.45,5.53,1,11.06,1.42,16.58.26,3.21.42,6.44.67,9.65.32,4.15.76,8.29,1,12.44.16,3.11.13,6.24.06,9.36-.09,4.13-.21,8.26-.45,12.39-.34,5.61-.69,11.22-1.27,16.8q-1.14,10.91-2.66,21.77a341,341,0,0,1-13.33,57.92,302,302,0,0,1-24.91,56.78,260.06,260.06,0,0,1-37.56,50.64A256.41,256.41,0,0,1,240,399.41c-8,4.37-16.33,8.19-24.52,12.25a21.81,21.81,0,0,1-2.19.83h-1.68c-2.56-1-5.15-2-7.66-3.16a281.07,281.07,0,0,1-49.64-29.13,255,255,0,0,1-59.67-61.86,292.2,292.2,0,0,1-33.27-65.78A320,320,0,0,1,47.95,203.3c-1.38-7.28-2.49-14.62-3.55-22-.67-4.59-1.1-9.22-1.52-13.85-.49-5.49-.86-11-1.27-16.49-.86-11.42-.71-22.85-.55-34.28.08-5.51.55-11,1-16.51.38-4.73.91-9.45,1.46-14.16.42-3.51,2.55-5.31,6.09-5.71q8.83-1,17.63-2.26a229.57,229.57,0,0,0,25.95-5.45,304.5,304.5,0,0,0,43.58-15.36,299.68,299.68,0,0,0,48.63-26.52c7.56-5.12,14.8-10.73,22.19-16.11,1.4-1,2.74-2.13,4.63-2.15h.06m.11,386.92a6.22,6.22,0,0,0,2.8-.69c4.2-2.09,8.47-4,12.66-6.15a254.26,254.26,0,0,0,43.29-27.76,242.7,242.7,0,0,0,41.46-42.12A261.12,261.12,0,0,0,350.91,252a333.76,333.76,0,0,0,16.9-68.27q1.44-10.4,2.45-20.85c.51-5.17.79-10.37,1-15.57.24-4.85.35-9.72.42-14.58,0-3.13-.06-6.26-.16-9.38-.19-6.25-.34-12.49-.65-18.74-.19-3.77-.73-7.52-.93-11.29-.07-1.33-.73-1.46-1.72-1.62-5.93-.88-11.87-1.7-17.78-2.71a284,284,0,0,1-39.93-10.06A317.82,317.82,0,0,1,243.4,47.71Q227.72,38.11,213.1,27a1.48,1.48,0,0,0-.86-.39,1.27,1.27,0,0,0-.76.32A361.88,361.88,0,0,1,181.2,47.65,323.19,323.19,0,0,1,132.85,72,291.28,291.28,0,0,1,83.41,87.11C77,88.44,70.46,89.5,64,90.62c-2.77.48-5.56.81-8.35,1.17-.57.08-.88.3-.95.87-.16,1.27-.4,2.54-.5,3.81-.19,2.66-.3,5.33-.44,8-.27,5-.59,10-.77,15.07-.11,3.31,0,6.61,0,9.91h-.24c.27,7.29.51,14.57.83,21.86.21,4.43.45,8.87.88,13.29C55,170.4,55.6,176.2,56.49,182c1.33,8.56,2.71,17.12,4.47,25.61a315.64,315.64,0,0,0,13.86,47.53,269.7,269.7,0,0,0,25.53,51.1,240.22,240.22,0,0,0,49.88,56,267.9,267.9,0,0,0,59.31,36.55,6.85,6.85,0,0,0,2.82.65M212.25,7.5h-.11a12,12,0,0,0-7.2,2.87l-.33.24c-2.36,1.72-4.74,3.49-7,5.2-4.88,3.63-9.93,7.38-15,10.82a296.29,296.29,0,0,1-47.82,26.07A297.42,297.42,0,0,1,91.89,67.81a224.41,224.41,0,0,1-25.38,5.34C60.73,74,54.85,74.72,49,75.38c-6,.67-9.81,4.35-10.49,10.09C38,90.28,37.45,95,37.06,99.82l-.1,1.27c-.41,5.08-.83,10.32-.9,15.57-.16,11.28-.33,22.95.56,34.73q.18,2.32.34,4.65c.28,3.9.58,7.93.94,11.9.43,4.8.87,9.48,1.55,14.12,1.19,8.27,2.26,15.21,3.58,22.17a326,326,0,0,0,13.63,50,298.87,298.87,0,0,0,33.84,66.9,259.38,259.38,0,0,0,60.84,63.07,287.49,287.49,0,0,0,50.51,29.65c1.87.86,3.75,1.6,5.57,2.33l2.29.92.92.37h3.55l.83-.31.54-.19a17.34,17.34,0,0,0,2.15-.86c2.42-1.2,4.91-2.41,7.32-3.58,5.72-2.77,11.64-5.64,17.36-8.76a262.57,262.57,0,0,0,65.16-49.86,266.31,266.31,0,0,0,38.28-51.6,308.52,308.52,0,0,0,25.32-57.71,347,347,0,0,0,13.53-58.77c1-7.27,1.92-14.65,2.68-21.94.62-5.92,1-12.07,1.29-17,.27-4.6.39-9.14.46-12.58.06-2.93.11-6.34-.07-9.72-.14-2.73-.38-5.46-.61-8.09-.13-1.49-.26-3-.37-4.46s-.21-3-.3-4.46c-.11-1.7-.22-3.47-.36-5.22-.23-2.84-.48-5.68-.73-8.52-.23-2.69-.47-5.37-.69-8.06-.59-7.26-5.37-9.51-9.27-10.12-2.1-.33-4.2-.6-6.23-.87l-3-.4c-1.52-.21-3.06-.41-4.6-.61-3.53-.46-6.86-.89-10.18-1.51a290.4,290.4,0,0,1-43.89-11.94,310.44,310.44,0,0,1-81.14-43.8c-1.42-1.06-2.86-2.16-4.26-3.23s-3.08-2.35-4.65-3.52a10.75,10.75,0,0,0-6.49-2.27Zm-153,88.87c1.85-.24,3.73-.5,5.62-.82l3.74-.64C73.76,94,79.13,93.1,84.43,92a297.74,297.74,0,0,0,50.29-15.33,329.15,329.15,0,0,0,49.1-24.76c9.73-6,19.29-12.45,28.44-19.3,9.44,7,19,13.55,28.54,19.37A324.41,324.41,0,0,0,309,83.66a286.68,286.68,0,0,0,40.64,10.23c4.47.77,9,1.43,13.39,2.07l2.16.32c.09,1,.19,2,.28,3,.19,1.91.36,3.71.45,5.51.25,5,.4,10.18.54,15.16l.1,3.48,0,.8c.08,2.76.17,5.61.13,8.36-.08,5.64-.21,10.21-.41,14.4-.23,4.67-.51,10.1-1,15.32-.67,6.88-1.48,13.83-2.43,20.66a329.38,329.38,0,0,1-16.65,67.25,257.53,257.53,0,0,1-37.61,69.4A237.92,237.92,0,0,1,268,360.91a249.79,249.79,0,0,1-42.44,27.21c-2.26,1.15-4.62,2.27-6.9,3.36-1.88.89-3.82,1.82-5.73,2.77a1.25,1.25,0,0,1-.57.16,2.09,2.09,0,0,1-.77-.21,264.39,264.39,0,0,1-58.2-35.86,234.88,234.88,0,0,1-48.84-54.86A266.15,266.15,0,0,1,79.5,253.33a311.63,311.63,0,0,1-13.65-46.79c-1.79-8.65-3.22-17.62-4.42-25.36-.88-5.64-1.45-11.29-2-17.06-.4-4.11-.64-8.18-.86-13-.23-5.08-.42-10.27-.6-15.29l0-1.34h0v-5c0-1.09,0-2.18,0-3.27,0-2.24,0-4.35,0-6.48.12-3.49.33-7.08.52-10.55q.12-2.21.24-4.43l.1-2c.1-1.94.2-3.95.34-5.89,0-.15,0-.3,0-.46Z" transform="translate(-35.93 -7.5)"/><path class="cls-1" d="M212.34,365.93a10.33,10.33,0,0,1-4.47-1l-.56-.26c-4.6-2.14-9.37-4.35-14-6.74a197.14,197.14,0,0,1-87.55-90.52,248.14,248.14,0,0,1-18-51.45A246.8,246.8,0,0,1,83,189.47c-.8-6.59-1.61-13.66-2.1-20.74-.5-7.38-.77-14.65-.78-21.62,0-3.55.28-7.11.55-10.56.12-1.53.24-3.05.34-4.58l.19-3.09c.17-2.72.34-5.44.53-8.16a34.11,34.11,0,0,1,.51-4.3,7.66,7.66,0,0,1,6.21-6.36c1.44-.28,2.87-.46,4.25-.64,1-.13,1.94-.25,2.91-.41,1.78-.3,3.57-.58,5.37-.86,4.48-.71,9.12-1.44,13.58-2.4a215.75,215.75,0,0,0,72.7-30.88c4.32-2.83,8.6-5.94,12.74-8.94,2-1.46,4-2.93,6.07-4.37A22.78,22.78,0,0,1,208.46,60a8.13,8.13,0,0,1,3.87-1,8.45,8.45,0,0,1,5,1.73c1.45,1.05,2.87,2.13,4.29,3.21,1.16.88,2.32,1.76,3.49,2.62a231.28,231.28,0,0,0,65.33,33.94,219.66,219.66,0,0,0,34,8.08c1.72.27,3.43.52,5.15.77,2,.3,4.05.59,6.08.92a7.6,7.6,0,0,1,6.75,7c.07.63.15,1.27.23,1.9.22,1.75.44,3.57.53,5.4.32,6.32.59,12.75.83,18.42l.25,5.76v.09c-.08,2.42-.14,4.71-.19,6.9-.12,4.51-.23,8.76-.46,12.95-.54,9.5-1.57,19.09-3.06,28.51a249,249,0,0,1-18.31,62.51A212,212,0,0,1,294.63,306a190.79,190.79,0,0,1-32.2,31.9,213.34,213.34,0,0,1-36.35,22.7c-2.29,1.14-4.65,2.21-6.92,3.25l-2.4,1.1A10.27,10.27,0,0,1,212.34,365.93Z" transform="translate(-35.93 -7.5)"/><path class="cls-2" d="M212.33,61.47a6,6,0,0,1,3.52,1.25c2.62,1.9,5.16,3.89,7.76,5.81a232.55,232.55,0,0,0,66,34.3A221.5,221.5,0,0,0,324,111c3.74.58,7.48,1.09,11.21,1.68a5.08,5.08,0,0,1,4.66,4.83c.27,2.38.63,4.75.74,7.14.43,8.47.76,16.94,1.07,24.08-.24,7.49-.3,13.64-.65,19.78a283.37,283.37,0,0,1-3,28.26,245.31,245.31,0,0,1-18.13,61.88,210.92,210.92,0,0,1-27.24,45.74A188.13,188.13,0,0,1,260.9,335.9,209.63,209.63,0,0,1,225,358.33c-3,1.51-6.16,2.89-9.26,4.32a7.78,7.78,0,0,1-6.77,0c-4.85-2.25-9.71-4.5-14.46-7a197.69,197.69,0,0,1-46.88-33.91A195.78,195.78,0,0,1,108,266.29a244.32,244.32,0,0,1-17.81-50.93,244.81,244.81,0,0,1-4.8-26.2c-.83-6.86-1.61-13.72-2.09-20.61-.49-7.13-.76-14.3-.78-21.45,0-5,.57-10,.89-15,.24-3.74.46-7.49.72-11.23a31.76,31.76,0,0,1,.48-4,5.13,5.13,0,0,1,4.23-4.36c2.35-.45,4.74-.66,7.1-1,6.36-1.06,12.77-1.93,19.07-3.28C141.57,102.47,166,91.77,188.6,77c6.45-4.22,12.59-8.9,18.88-13.37a20.52,20.52,0,0,1,2.19-1.41,5.59,5.59,0,0,1,2.65-.7m0-5a10.55,10.55,0,0,0-5,1.29l0,0,0,0a25.61,25.61,0,0,0-2.69,1.73c-2,1.45-4.08,2.93-6.06,4.37-4.11,3-8.37,6.08-12.64,8.87A213.27,213.27,0,0,1,114,103.3c-4.4.95-9,1.67-13.45,2.37-1.8.28-3.6.57-5.39.86-.9.15-1.83.27-2.82.4-1.42.19-2.9.38-4.41.67a10.17,10.17,0,0,0-8.18,8.28V116a36.92,36.92,0,0,0-.55,4.62c-.19,2.71-.36,5.47-.53,8.13l-.19,3.1c-.1,1.5-.22,3-.34,4.54-.28,3.49-.57,7.1-.56,10.76,0,7,.28,14.35.79,21.78.49,7.13,1.3,14.24,2.11,20.87a249.33,249.33,0,0,0,4.89,26.73,250.64,250.64,0,0,0,18.18,52,199.62,199.62,0,0,0,88.64,91.65c4.63,2.4,9.39,4.61,14,6.75l.63.29a12.78,12.78,0,0,0,11,0l2.38-1.09c2.28-1,4.65-2.12,7-3.28a215.78,215.78,0,0,0,36.78-23,193.33,193.33,0,0,0,32.62-32.32,214.46,214.46,0,0,0,27.89-46.82A251.52,251.52,0,0,0,343,197.57c1.5-9.5,2.54-19.17,3.09-28.75.24-4.23.35-8.52.47-13,.06-2.18.11-4.45.19-6.86v-.37c-.08-1.76-.15-3.61-.23-5.52-.24-5.72-.51-12.21-.84-18.6-.09-1.92-.32-3.79-.55-5.59-.08-.62-.15-1.24-.22-1.86a10.08,10.08,0,0,0-8.84-9.21c-2-.33-4.11-.63-6.1-.92-1.71-.25-3.42-.5-5.13-.77a217.19,217.19,0,0,1-33.61-8,228.8,228.8,0,0,1-64.62-33.57c-1.16-.86-2.32-1.73-3.47-2.6-1.4-1.06-2.85-2.16-4.32-3.23a10.91,10.91,0,0,0-6.46-2.21Z" transform="translate(-35.93 -7.5)"/></svg>